<svg width="37" height="33" viewBox="0 0 37 33" fill="none" xmlns="http://www.w3.org/2000/svg">
<path d="M11.875 19.25C14.4644 19.25 16.8081 18.2 18.505 16.5031C20.2 14.8081 21.25 12.4644 21.25 9.875C21.25 7.28562 20.2 4.94187 18.505 3.24688C16.8081 1.55 14.4644 0.5 11.875 0.5C9.28563 0.5 6.94188 1.55 5.245 3.24688C3.55 4.94187 2.5 7.28562 2.5 9.875C2.5 12.4644 3.55 14.8081 5.245 16.5031C6.11465 17.3752 7.14807 18.0668 8.28587 18.5382C9.42367 19.0096 10.6434 19.2515 11.875 19.25ZM11.875 32.375C18.4713 32.375 23.125 30.5 23.125 28.625C23.125 24.875 18.7113 21.125 11.875 21.125C4.84375 21.125 0.625 24.875 0.625 28.625C0.625 30.5 4.84375 32.375 11.875 32.375ZM34.375 15.5H30.625V11.75C30.625 11.2527 30.4275 10.7758 30.0758 10.4242C29.7242 10.0725 29.2473 9.875 28.75 9.875C28.2527 9.875 27.7758 10.0725 27.4242 10.4242C27.0726 10.7758 26.875 11.2527 26.875 11.75V15.5H23.125C22.6277 15.5 22.1508 15.6975 21.7992 16.0492C21.4476 16.4008 21.25 16.8777 21.25 17.375C21.25 17.8723 21.4476 18.3492 21.7992 18.7008C22.1508 19.0525 22.6277 19.25 23.125 19.25H26.875V23C26.875 23.4973 27.0726 23.9742 27.4242 24.3258C27.7758 24.6775 28.2527 24.875 28.75 24.875C29.2473 24.875 29.7242 24.6775 30.0758 24.3258C30.4275 23.9742 30.625 23.4973 30.625 23V19.25H34.375C34.8723 19.25 35.3492 19.0525 35.7008 18.7008C36.0525 18.3492 36.25 17.8723 36.25 17.375C36.25 16.8777 36.0525 16.4008 35.7008 16.0492C35.3492 15.6975 34.8723 15.5 34.375 15.5Z" fill="#403F3F"/>
</svg>
