<svg width="38" height="38" viewBox="0 0 38 38" fill="none" xmlns="http://www.w3.org/2000/svg">
<path d="M34.4688 3.53124C32.813 1.88732 30.6053 0.917474 28.2745 0.81006C25.9437 0.702645 23.6562 1.46533 21.8563 2.94999C21.7803 2.98397 21.7106 3.03044 21.65 3.08749L3.70627 21.0375C1.94769 22.7399 0.915081 25.0561 0.824232 27.502C0.733383 29.9479 1.59132 32.3343 3.21877 34.1625C4.07111 35.1026 5.10696 35.8583 6.26249 36.3828C7.41801 36.9074 8.66871 37.1897 9.93751 37.2125H10.1688C11.3987 37.2162 12.6172 36.9756 13.7534 36.5046C14.8896 36.0336 15.9209 35.3416 16.7875 34.4687L34.9125 16.3437C34.969 16.2876 35.0117 16.2191 35.0375 16.1437C36.5305 14.3482 37.2997 12.0602 37.1945 9.7274C37.0893 7.39463 36.1173 5.18508 34.4688 3.53124ZM31.9563 14L19.2438 26.7125L19.175 26.775C18.6818 27.2378 18.0401 27.5102 17.3646 27.5434C16.689 27.5766 16.0237 27.3685 15.4875 26.9562C15.1958 26.7203 14.9555 26.4272 14.7814 26.0949C14.6072 25.7626 14.5029 25.3983 14.4747 25.0242C14.4466 24.6501 14.4954 24.2742 14.618 23.9196C14.7405 23.5651 14.9344 23.2393 15.1875 22.9625L25.7 12.4375C26.0514 12.0852 26.2485 11.6078 26.2479 11.1103C26.2473 10.6127 26.0491 10.1358 25.6969 9.78436C25.3446 9.43295 24.8672 9.23586 24.3697 9.23645C23.8721 9.23703 23.3952 9.43525 23.0438 9.78749L12.4188 20.4125C12.3806 20.4509 12.349 20.4952 12.325 20.5437C11.2361 21.7842 10.6604 23.3928 10.7149 25.0425C10.7695 26.6922 11.4502 28.2592 12.6188 29.425C13.2942 30.1009 14.109 30.6214 15.0063 30.95L14.2875 31.6687C13.278 32.7022 11.9169 33.3182 10.4743 33.3946C9.03163 33.4711 7.61301 33.0022 6.50002 32.0812C5.91508 31.5772 5.44174 30.9567 5.11028 30.2593C4.77881 29.5619 4.5965 28.8031 4.57502 28.0312C4.54792 27.2613 4.67928 26.494 4.96096 25.7769C5.24264 25.0598 5.66863 24.4082 6.21252 23.8625L23.9625 6.11249L24.1938 5.91249C25.2191 5.02961 26.5282 4.54588 27.8813 4.54999C28.1026 4.55003 28.3238 4.56255 28.5438 4.58749C29.3235 4.67607 30.0756 4.92843 30.751 5.32804C31.4263 5.72764 32.0096 6.26546 32.4625 6.90624C33.1796 7.97636 33.5192 9.25514 33.4275 10.54C33.3358 11.825 32.8181 13.0426 31.9563 14Z" fill="#505050"/>
</svg>
