<svg width="34" height="42" viewBox="0 0 34 42" fill="none" xmlns="http://www.w3.org/2000/svg">
<path d="M19.0834 25.047H10.75C10.1975 25.047 9.66759 25.2646 9.27689 25.652C8.88619 26.0393 8.6667 26.5647 8.6667 27.1125C8.6667 27.6602 8.88619 28.1856 9.27689 28.5729C9.66759 28.9603 10.1975 29.1779 10.75 29.1779H19.0834C19.6359 29.1779 20.1658 28.9603 20.5565 28.5729C20.9472 28.1856 21.1667 27.6602 21.1667 27.1125C21.1667 26.5647 20.9472 26.0393 20.5565 25.652C20.1658 25.2646 19.6359 25.047 19.0834 25.047ZM27.4167 4.39291H24.9584C24.5285 3.18764 23.7332 2.14367 22.6814 1.40413C21.6296 0.66459 20.3728 0.265678 19.0834 0.262085H14.9167C13.6272 0.265678 12.3704 0.66459 11.3186 1.40413C10.2668 2.14367 9.47152 3.18764 9.0417 4.39291H6.58337C4.92577 4.39291 3.33606 5.04573 2.16396 6.20775C0.991854 7.36977 0.333374 8.94581 0.333374 10.5891V35.3741C0.333374 37.0175 0.991854 38.5935 2.16396 39.7555C3.33606 40.9175 4.92577 41.5703 6.58337 41.5703H27.4167C29.0743 41.5703 30.664 40.9175 31.8361 39.7555C33.0082 38.5935 33.6667 37.0175 33.6667 35.3741V10.5891C33.6667 8.94581 33.0082 7.36977 31.8361 6.20775C30.664 5.04573 29.0743 4.39291 27.4167 4.39291ZM12.8334 6.45832C12.8334 5.91054 13.0529 5.3852 13.4436 4.99786C13.8343 4.61052 14.3642 4.39291 14.9167 4.39291H19.0834C19.6359 4.39291 20.1658 4.61052 20.5565 4.99786C20.9472 5.3852 21.1667 5.91054 21.1667 6.45832V8.52374H12.8334V6.45832ZM29.5 35.3741C29.5 35.9219 29.2805 36.4472 28.8898 36.8346C28.4991 37.2219 27.9692 37.4395 27.4167 37.4395H6.58337C6.03083 37.4395 5.50093 37.2219 5.11023 36.8346C4.71953 36.4472 4.50004 35.9219 4.50004 35.3741V10.5891C4.50004 10.0414 4.71953 9.51602 5.11023 9.12868C5.50093 8.74134 6.03083 8.52374 6.58337 8.52374H8.6667V10.5891C8.6667 11.1369 8.88619 11.6623 9.27689 12.0496C9.66759 12.437 10.1975 12.6546 10.75 12.6546H23.25C23.8026 12.6546 24.3325 12.437 24.7232 12.0496C25.1139 11.6623 25.3334 11.1369 25.3334 10.5891V8.52374H27.4167C27.9692 8.52374 28.4991 8.74134 28.8898 9.12868C29.2805 9.51602 29.5 10.0414 29.5 10.5891V35.3741ZM23.25 16.7854H10.75C10.1975 16.7854 9.66759 17.003 9.27689 17.3903C8.88619 17.7777 8.6667 18.303 8.6667 18.8508C8.6667 19.3986 8.88619 19.9239 9.27689 20.3113C9.66759 20.6986 10.1975 20.9162 10.75 20.9162H23.25C23.8026 20.9162 24.3325 20.6986 24.7232 20.3113C25.1139 19.9239 25.3334 19.3986 25.3334 18.8508C25.3334 18.303 25.1139 17.7777 24.7232 17.3903C24.3325 17.003 23.8026 16.7854 23.25 16.7854Z" fill="#52D066"/>
</svg>
