<svg width="42" height="42" viewBox="0 0 42 42" fill="none" xmlns="http://www.w3.org/2000/svg">
<path d="M37.6667 0.166672H4.33335C2.04169 0.166672 0.18752 2.04167 0.18752 4.33334L0.166687 41.8333L8.50002 33.5H37.6667C39.9584 33.5 41.8334 31.625 41.8334 29.3333V4.33334C41.8334 2.04167 39.9584 0.166672 37.6667 0.166672ZM10.5834 14.75H31.4167C32.5625 14.75 33.5 15.6875 33.5 16.8333C33.5 17.9792 32.5625 18.9167 31.4167 18.9167H10.5834C9.43752 18.9167 8.50002 17.9792 8.50002 16.8333C8.50002 15.6875 9.43752 14.75 10.5834 14.75ZM23.0834 25.1667H10.5834C9.43752 25.1667 8.50002 24.2292 8.50002 23.0833C8.50002 21.9375 9.43752 21 10.5834 21H23.0834C24.2292 21 25.1667 21.9375 25.1667 23.0833C25.1667 24.2292 24.2292 25.1667 23.0834 25.1667ZM31.4167 12.6667H10.5834C9.43752 12.6667 8.50002 11.7292 8.50002 10.5833C8.50002 9.43751 9.43752 8.50001 10.5834 8.50001H31.4167C32.5625 8.50001 33.5 9.43751 33.5 10.5833C33.5 11.7292 32.5625 12.6667 31.4167 12.6667Z" fill="white"/>
</svg>
