<svg width="34" height="42" viewBox="0 0 34 42" fill="none" xmlns="http://www.w3.org/2000/svg">
<path d="M19.0834 25.1667H10.75C10.1975 25.1667 9.66759 25.3862 9.27689 25.7769C8.88619 26.1676 8.6667 26.6975 8.6667 27.25C8.6667 27.8026 8.88619 28.3325 9.27689 28.7232C9.66759 29.1139 10.1975 29.3334 10.75 29.3334H19.0834C19.6359 29.3334 20.1658 29.1139 20.5565 28.7232C20.9472 28.3325 21.1667 27.8026 21.1667 27.25C21.1667 26.6975 20.9472 26.1676 20.5565 25.7769C20.1658 25.3862 19.6359 25.1667 19.0834 25.1667ZM27.4167 4.33336H24.9584C24.5285 3.11763 23.7332 2.0646 22.6814 1.31864C21.6296 0.572684 20.3728 0.170311 19.0834 0.166687H14.9167C13.6272 0.170311 12.3704 0.572684 11.3186 1.31864C10.2668 2.0646 9.47152 3.11763 9.0417 4.33336H6.58337C4.92577 4.33336 3.33606 4.99184 2.16396 6.16394C0.991854 7.33604 0.333374 8.92575 0.333374 10.5834V35.5834C0.333374 37.241 0.991854 38.8307 2.16396 40.0028C3.33606 41.1749 4.92577 41.8334 6.58337 41.8334H27.4167C29.0743 41.8334 30.664 41.1749 31.8361 40.0028C33.0082 38.8307 33.6667 37.241 33.6667 35.5834V10.5834C33.6667 8.92575 33.0082 7.33604 31.8361 6.16394C30.664 4.99184 29.0743 4.33336 27.4167 4.33336ZM12.8334 6.41669C12.8334 5.86415 13.0529 5.33425 13.4436 4.94355C13.8343 4.55285 14.3642 4.33336 14.9167 4.33336H19.0834C19.6359 4.33336 20.1658 4.55285 20.5565 4.94355C20.9472 5.33425 21.1667 5.86415 21.1667 6.41669V8.50002H12.8334V6.41669ZM29.5 35.5834C29.5 36.1359 29.2805 36.6658 28.8898 37.0565C28.4991 37.4472 27.9692 37.6667 27.4167 37.6667H6.58337C6.03083 37.6667 5.50093 37.4472 5.11023 37.0565C4.71953 36.6658 4.50004 36.1359 4.50004 35.5834V10.5834C4.50004 10.0308 4.71953 9.50092 5.11023 9.11022C5.50093 8.71952 6.03083 8.50002 6.58337 8.50002H8.6667V10.5834C8.6667 11.1359 8.88619 11.6658 9.27689 12.0565C9.66759 12.4472 10.1975 12.6667 10.75 12.6667H23.25C23.8026 12.6667 24.3325 12.4472 24.7232 12.0565C25.1139 11.6658 25.3334 11.1359 25.3334 10.5834V8.50002H27.4167C27.9692 8.50002 28.4991 8.71952 28.8898 9.11022C29.2805 9.50092 29.5 10.0308 29.5 10.5834V35.5834ZM23.25 16.8334H10.75C10.1975 16.8334 9.66759 17.0529 9.27689 17.4436C8.88619 17.8343 8.6667 18.3642 8.6667 18.9167C8.6667 19.4692 8.88619 19.9991 9.27689 20.3898C9.66759 20.7805 10.1975 21 10.75 21H23.25C23.8026 21 24.3325 20.7805 24.7232 20.3898C25.1139 19.9991 25.3334 19.4692 25.3334 18.9167C25.3334 18.3642 25.1139 17.8343 24.7232 17.4436C24.3325 17.0529 23.8026 16.8334 23.25 16.8334Z" fill="white"/>
</svg>
