<svg width="38" height="38" viewBox="0 0 38 38" fill="none" xmlns="http://www.w3.org/2000/svg">
<path d="M19 0.25C29.3553 0.25 37.75 8.64466 37.75 19C37.75 29.3553 29.3553 37.75 19 37.75C8.64466 37.75 0.25 29.3553 0.25 19C0.25 8.64466 8.64466 0.25 19 0.25ZM19 3.375C10.3706 3.375 3.375 10.3706 3.375 19C3.375 27.6294 10.3706 34.625 19 34.625C27.6294 34.625 34.625 27.6294 34.625 19C34.625 10.3706 27.6294 3.375 19 3.375ZM24.8235 24.2079C25.3991 23.5649 26.3869 23.5102 27.03 24.0857C27.6728 24.6612 27.7275 25.6491 27.1522 26.2922C25.1516 28.5272 22.2395 29.9375 19 29.9375C15.7605 29.9375 12.8484 28.5272 10.8479 26.2922C10.2724 25.6491 10.3271 24.6612 10.9701 24.0857C11.6131 23.5102 12.6009 23.5649 13.1764 24.2079C14.6092 25.8088 16.6863 26.8125 19 26.8125C21.3137 26.8125 23.3908 25.8088 24.8235 24.2079ZM13.5312 13.5312C14.8257 13.5312 15.875 14.5806 15.875 15.875C15.875 17.1694 14.8257 18.2188 13.5312 18.2188C12.2368 18.2188 11.1875 17.1694 11.1875 15.875C11.1875 14.5806 12.2368 13.5312 13.5312 13.5312ZM24.4688 13.5312C25.7631 13.5312 26.8125 14.5806 26.8125 15.875C26.8125 17.1694 25.7631 18.2188 24.4688 18.2188C23.1743 18.2188 22.125 17.1694 22.125 15.875C22.125 14.5806 23.1743 13.5312 24.4688 13.5312Z" fill="#505050"/>
</svg>
