<svg width="44" height="46" viewBox="0 0 44 46" fill="none" xmlns="http://www.w3.org/2000/svg">
<path fill-rule="evenodd" clip-rule="evenodd" d="M43.5781 22.699C43.1812 23.0969 42.5364 23.0969 42.1396 22.699L32.8281 13.3885C32.7614 13.3354 32.7042 13.2781 32.651 13.2104L28.6614 9.22187C28.5948 9.16875 28.5375 9.11146 28.4844 9.04375L22 2.55937L1.86144 22.699C1.46457 23.0969 0.819775 23.0969 0.4229 22.699C0.0260254 22.3021 0.0260254 21.6573 0.4229 21.2604L21.1573 0.526039C21.1896 0.477081 21.2125 0.420831 21.2552 0.376039C21.4604 0.171873 21.7312 0.077081 22 0.083331C22.2687 0.077081 22.5396 0.170831 22.7448 0.376039C22.7896 0.419789 22.8094 0.476039 22.8448 0.526039L28.25 5.93333V3.20521C28.25 2.63021 28.7156 2.16354 29.2917 2.16354H33.4583C33.7469 2.16354 34.0073 2.28021 34.1948 2.46875C34.3844 2.65729 34.5 2.91771 34.5 3.20521V12.1833L43.5781 21.2604C43.975 21.6573 43.975 22.3021 43.5781 22.699ZM32.4167 4.24687H30.3333V8.01666L32.4167 10.1V4.24687ZM7.41665 20.9135C7.99165 20.9135 8.45832 21.3802 8.45832 21.9552V41.7469C8.45832 42.8979 9.39165 43.8302 10.5417 43.8302H16.7917V30.2885C16.7917 29.7125 17.2573 29.2469 17.8333 29.2469H26.1667C26.7427 29.2469 27.2083 29.7125 27.2083 30.2885V43.8302H33.4583C34.6094 43.8302 35.5417 42.8979 35.5417 41.7469V21.9552C35.5417 21.3802 36.0073 20.9135 36.5833 20.9135C37.1594 20.9135 37.625 21.3802 37.625 21.9552V41.7469C37.625 44.0479 35.7594 45.9135 33.4583 45.9135H10.5417C8.24061 45.9135 6.37498 44.0479 6.37498 41.7469V21.9552C6.37498 21.3792 6.84165 20.9135 7.41665 20.9135ZM25.125 43.8292V31.3292H18.875V43.8292H25.125Z" fill="white"/>
</svg>
