<svg width="40" height="10" viewBox="0 0 40 10" fill="none" xmlns="http://www.w3.org/2000/svg">
<path d="M20.002 0.380005C19.395 0.380005 18.794 0.499559 18.2332 0.731841C17.6724 0.964123 17.1629 1.30459 16.7337 1.73379C16.3045 2.16299 15.964 2.67252 15.7318 3.2333C15.4995 3.79408 15.3799 4.39512 15.3799 5.00211C15.3799 5.60909 15.4995 6.21013 15.7318 6.77091C15.964 7.33169 16.3045 7.84122 16.7337 8.27042C17.1629 8.69962 17.6724 9.04009 18.2332 9.27237C18.794 9.50465 19.395 9.6242 20.002 9.6242C21.2279 9.62393 22.4034 9.13669 23.27 8.26968C24.1367 7.40267 24.6234 6.22691 24.6231 5.00105C24.6228 3.7752 24.1356 2.59966 23.2686 1.73304C22.4015 0.866429 21.2258 0.379727 19.9999 0.380005H20.002ZM5.30203 0.380005C4.69505 0.380005 4.09401 0.499559 3.53323 0.731841C2.97245 0.964123 2.46291 1.30459 2.03371 1.73379C1.60451 2.16299 1.26405 2.67252 1.03177 3.2333C0.799486 3.79408 0.679932 4.39512 0.679932 5.00211C0.679932 5.60909 0.799486 6.21013 1.03177 6.77091C1.26405 7.33169 1.60451 7.84122 2.03371 8.27042C2.46291 8.69962 2.97245 9.04009 3.53323 9.27237C4.09401 9.50465 4.69505 9.6242 5.30203 9.6242C6.52789 9.62393 7.70343 9.13669 8.57004 8.26968C9.43666 7.40267 9.92336 6.22691 9.92308 5.00105C9.9228 3.7752 9.43556 2.59966 8.56856 1.73304C7.70155 0.866429 6.52579 0.379727 5.29993 0.380005H5.30203ZM34.702 0.380005C34.095 0.380005 33.494 0.499559 32.9332 0.731841C32.3724 0.964123 31.8629 1.30459 31.4337 1.73379C31.0045 2.16299 30.664 2.67252 30.4318 3.2333C30.1995 3.79408 30.0799 4.39512 30.0799 5.00211C30.0799 5.60909 30.1995 6.21013 30.4318 6.77091C30.664 7.33169 31.0045 7.84122 31.4337 8.27042C31.8629 8.69962 32.3724 9.04009 32.9332 9.27237C33.494 9.50465 34.095 9.6242 34.702 9.6242C35.9279 9.62393 37.1034 9.13669 37.97 8.26968C38.8367 7.40267 39.3234 6.22691 39.3231 5.00105C39.3228 3.7752 38.8356 2.59966 37.9686 1.73304C37.1015 0.866429 35.9258 0.379727 34.6999 0.380005H34.702Z" fill="#403F3F"/>
</svg>
