<svg width="50" height="28" viewBox="0 0 50 28" fill="none" xmlns="http://www.w3.org/2000/svg">
<path d="M25.0078 16.4609C27.9297 16.4609 30.8047 11.7109 30.8047 6.875C30.8047 1.82812 27.6484 0.765625 25.0078 0.765625C22.3516 0.765625 19.2109 1.82812 19.2109 6.875C19.2109 11.7109 22.0781 16.4609 25.0078 16.4609ZM34.7266 20.0625C33.5078 19.6875 32.0781 19.0781 30.5 18.25C29.75 17.8437 28.9531 17.3984 28.1484 16.9141C27.2109 17.6406 26.1484 18.0703 25.0078 18.0703C23.8672 18.0703 22.8047 17.6406 21.8594 16.9141C21.2344 17.2969 20.4219 17.7734 19.5 18.25C19.0703 18.4766 18.6562 18.6797 18.2656 18.8672C17.1641 19.3906 16.1719 19.7891 15.2812 20.0625C12.0469 21.0703 11.2266 25.3984 11.0312 27.2266H38.9766C38.7734 25.4062 37.9688 21.0781 34.7266 20.0625ZM39.7734 15.7344C40.3672 15.7344 40.9453 15.4609 41.4766 14.9922C41.5 14.9766 41.5156 14.9531 41.5391 14.9375C42.875 13.7109 43.8984 11.2578 43.8984 8.76562C43.8984 5.15625 41.6484 4.39844 39.7656 4.39844C37.875 4.39844 35.625 5.15625 35.625 8.76562C35.625 11.2656 36.6641 13.7344 38.0078 14.9531C38.5703 15.4375 39.1719 15.7344 39.7734 15.7344ZM47 18.8281C46.0938 18.5547 45.0547 18.1094 43.7969 17.4609C43.1562 17.125 42.5859 16.7891 42.1406 16.5234C41.4297 17.0391 40.625 17.3516 39.7812 17.3516C38.9219 17.3516 38.125 17.0469 37.4141 16.5234C36.8594 16.8594 36.3047 17.1797 35.7578 17.4609C35.2266 17.7422 34.7188 17.9844 34.25 18.1875C34.5859 18.3203 34.9062 18.4219 35.2109 18.5156C37.8359 19.3359 39.1953 21.6484 39.8984 23.7891H50C49.8203 22.3594 49.1797 19.5156 47 18.8281ZM8.52344 14.9844C9.05469 15.4531 9.64062 15.7266 10.2266 15.7266C10.8281 15.7266 11.4219 15.4453 11.9688 14.9609C11.9844 14.9453 11.9922 14.9375 12 14.9297C13.3438 13.7031 14.3672 11.25 14.3672 8.75781C14.3672 5.14844 12.1172 4.39063 10.2266 4.39063C8.34375 4.39063 6.09375 5.14844 6.09375 8.75781C6.09375 11.2422 7.10938 13.6953 8.44531 14.9219C8.47656 14.9453 8.5 14.9609 8.52344 14.9844ZM14.8047 18.5234C15.1094 18.4375 15.4375 18.3203 15.7656 18.1953C15.2969 17.9844 14.7969 17.7422 14.25 17.4687C13.6094 17.1406 13.0469 16.8047 12.5938 16.5312C11.8828 17.0469 11.0859 17.3594 10.2344 17.3594C9.38281 17.3594 8.58594 17.0547 7.875 16.5312C7.45312 16.7891 6.88281 17.125 6.21094 17.4687C4.97656 18.1172 3.92188 18.5625 3.02344 18.8359C0.828125 19.5156 0.1875 22.3594 0 23.7969H10.1094C10.8125 21.6484 12.1719 19.3359 14.8047 18.5234Z" fill="white"/>
</svg>
