<svg width="40" height="42" viewBox="0 0 40 42" fill="none" xmlns="http://www.w3.org/2000/svg">
<path d="M30.4792 15.3125C27.8125 4.33334 20.8333 0.458334 20.5417 0.291668C20.3878 0.209597 20.2161 0.166668 20.0417 0.166668C19.8673 0.166668 19.6956 0.209597 19.5417 0.291668C19.1875 0.500001 12.1875 4.45833 9.5625 15.3542C7.04167 17.4167 0.25 23.4167 0.25 28.2917C0.25 28.5679 0.359747 28.8329 0.555097 29.0282C0.750448 29.2236 1.0154 29.3333 1.29167 29.3333H8.58333V32.4583C8.58333 32.7346 8.69308 32.9996 8.88843 33.1949C9.08378 33.3903 9.34873 33.5 9.625 33.5H30.4583C30.7346 33.5 30.9996 33.3903 31.1949 33.1949C31.3903 32.9996 31.5 32.7346 31.5 32.4583V29.3333H38.7917C39.0679 29.3333 39.3329 29.2236 39.5282 29.0282C39.7236 28.8329 39.8333 28.5679 39.8333 28.2917C39.8333 23.3958 32.9792 17.375 30.4792 15.3125ZM22.125 27.25H17.9583C17.6821 27.25 17.4171 27.1403 17.2218 26.9449C17.0264 26.7496 16.9167 26.4846 16.9167 26.2083C16.9167 25.9321 17.0264 25.6671 17.2218 25.4718C17.4171 25.2764 17.6821 25.1667 17.9583 25.1667H22.125C22.4013 25.1667 22.6662 25.2764 22.8616 25.4718C23.0569 25.6671 23.1667 25.9321 23.1667 26.2083C23.1667 26.4846 23.0569 26.7496 22.8616 26.9449C22.6662 27.1403 22.4013 27.25 22.125 27.25ZM20.0417 23.0833C19.0116 23.0833 18.0046 22.7779 17.1481 22.2056C16.2916 21.6333 15.624 20.8198 15.2298 19.8681C14.8356 18.9164 14.7324 17.8692 14.9334 16.8589C15.1344 15.8486 15.6304 14.9206 16.3588 14.1922C17.0872 13.4638 18.0153 12.9677 19.0256 12.7667C20.0359 12.5658 21.0831 12.6689 22.0348 13.0631C22.9865 13.4573 23.7999 14.1249 24.3722 14.9814C24.9445 15.8379 25.25 16.8449 25.25 17.875C25.25 19.2563 24.7013 20.5811 23.7245 21.5578C22.7478 22.5346 21.423 23.0833 20.0417 23.0833ZM28.375 35.5833C28.0987 35.5833 27.8338 35.6931 27.6384 35.8884C27.4431 36.0838 27.3333 36.3487 27.3333 36.625V38.7083C27.3333 38.9846 27.4431 39.2496 27.6384 39.4449C27.8338 39.6403 28.0987 39.75 28.375 39.75C28.6513 39.75 28.9162 39.6403 29.1116 39.4449C29.3069 39.2496 29.4167 38.9846 29.4167 38.7083V36.625C29.4167 36.3487 29.3069 36.0838 29.1116 35.8884C28.9162 35.6931 28.6513 35.5833 28.375 35.5833ZM11.7083 35.5833C11.4321 35.5833 11.1671 35.6931 10.9718 35.8884C10.7764 36.0838 10.6667 36.3487 10.6667 36.625V38.7083C10.6667 38.9846 10.7764 39.2496 10.9718 39.4449C11.1671 39.6403 11.4321 39.75 11.7083 39.75C11.9846 39.75 12.2496 39.6403 12.4449 39.4449C12.6403 39.2496 12.75 38.9846 12.75 38.7083V36.625C12.75 36.3487 12.6403 36.0838 12.4449 35.8884C12.2496 35.6931 11.9846 35.5833 11.7083 35.5833ZM19.3542 41.5625C19.5399 41.7383 19.7859 41.8363 20.0417 41.8363C20.2974 41.8363 20.5434 41.7383 20.7292 41.5625C22.4937 39.9028 23.8487 37.8559 24.6875 35.5833H15.3958C16.2346 37.8559 17.5896 39.9028 19.3542 41.5625Z" fill="white"/>
</svg>
