<svg width="41" height="41" viewBox="0 0 41 41" fill="none" xmlns="http://www.w3.org/2000/svg">
<path d="M31.2088 15.1537C28.4888 4.83334 21.37 1.19084 21.0725 1.03417C20.9156 0.957025 20.7404 0.916672 20.5625 0.916672C20.3846 0.916672 20.2095 0.957025 20.0525 1.03417C19.6913 1.23 12.5513 4.95084 9.87376 15.1929C7.3025 17.1317 0.375 22.7717 0.375 27.3542C0.375 27.6138 0.486942 27.8629 0.686199 28.0465C0.885457 28.2302 1.15571 28.3333 1.4375 28.3333H8.87501V31.2708C8.87501 31.5305 8.98695 31.7796 9.1862 31.9632C9.38546 32.1468 9.65571 32.25 9.93751 32.25H31.1875C31.4693 32.25 31.7396 32.1468 31.9388 31.9632C32.1381 31.7796 32.25 31.5305 32.25 31.2708V28.3333H39.6875C39.9693 28.3333 40.2396 28.2302 40.4388 28.0465C40.6381 27.8629 40.75 27.6138 40.75 27.3542C40.75 22.7521 33.7588 17.0925 31.2088 15.1537ZM22.6875 26.375H18.4375C18.1557 26.375 17.8855 26.2718 17.6862 26.0882C17.487 25.9046 17.375 25.6555 17.375 25.3958C17.375 25.1361 17.487 24.8871 17.6862 24.7034C17.8855 24.5198 18.1557 24.4167 18.4375 24.4167H22.6875C22.9693 24.4167 23.2396 24.5198 23.4388 24.7034C23.6381 24.8871 23.75 25.1361 23.75 25.3958C23.75 25.6555 23.6381 25.9046 23.4388 26.0882C23.2396 26.2718 22.9693 26.375 22.6875 26.375ZM20.5625 22.4583C19.5118 22.4583 18.4847 22.1712 17.611 21.6332C16.7374 21.0953 16.0565 20.3306 15.6544 19.436C15.2523 18.5415 15.1471 17.5571 15.3521 16.6074C15.5571 15.6577 16.063 14.7853 16.806 14.1006C17.549 13.4159 18.4956 12.9496 19.5261 12.7607C20.5566 12.5718 21.6248 12.6688 22.5955 13.0393C23.5663 13.4099 24.396 14.0374 24.9797 14.8425C25.5634 15.6476 25.875 16.5942 25.875 17.5625C25.875 18.861 25.3153 20.1062 24.319 21.0244C23.3227 21.9425 21.9715 22.4583 20.5625 22.4583ZM29.0625 34.2083C28.7807 34.2083 28.5105 34.3115 28.3112 34.4951C28.112 34.6787 28 34.9278 28 35.1875V37.1458C28 37.4055 28.112 37.6546 28.3112 37.8382C28.5105 38.0218 28.7807 38.125 29.0625 38.125C29.3443 38.125 29.6146 38.0218 29.8138 37.8382C30.0131 37.6546 30.125 37.4055 30.125 37.1458V35.1875C30.125 34.9278 30.0131 34.6787 29.8138 34.4951C29.6146 34.3115 29.3443 34.2083 29.0625 34.2083ZM12.0625 34.2083C11.7807 34.2083 11.5105 34.3115 11.3112 34.4951C11.1119 34.6787 11 34.9278 11 35.1875V37.1458C11 37.4055 11.1119 37.6546 11.3112 37.8382C11.5105 38.0218 11.7807 38.125 12.0625 38.125C12.3443 38.125 12.6146 38.0218 12.8138 37.8382C13.0131 37.6546 13.125 37.4055 13.125 37.1458V35.1875C13.125 34.9278 13.0131 34.6787 12.8138 34.4951C12.6146 34.3115 12.3443 34.2083 12.0625 34.2083ZM19.8613 39.8287C20.0507 39.994 20.3016 40.0861 20.5625 40.0861C20.8234 40.0861 21.0743 39.994 21.2638 39.8287C23.0636 38.2686 24.4457 36.3446 25.3013 34.2083H15.8238C16.6793 36.3446 18.0614 38.2686 19.8613 39.8287Z" fill="#898686"/>
</svg>
