<svg width="266" height="210" viewBox="0 0 266 210" fill="none" xmlns="http://www.w3.org/2000/svg">
<path d="M80.712 5.7783C80.766 5.37513 80.9026 4.98664 81.1138 4.63591C81.325 4.28517 81.6065 3.97934 81.9415 3.7366C82.2764 3.49385 82.6581 3.31913 83.0638 3.22282C83.4695 3.12651 83.8909 3.11058 84.303 3.17597C93.2013 4.4463 102.866 6.0373 113.031 7.89347C113.803 8.03808 114.493 8.45739 114.965 9.06978C115.438 9.68217 115.659 10.4438 115.586 11.2064C115.513 11.9689 115.152 12.6779 114.572 13.1951C113.992 13.7124 113.235 14.0009 112.448 14.0046C112.253 14.0042 112.058 13.9856 111.866 13.9491C101.777 12.0991 92.2007 10.539 83.3657 9.2748C82.5387 9.15151 81.7954 8.71458 81.2982 8.05945C80.801 7.40432 80.5903 6.58423 80.712 5.7783ZM67.1333 6.2223C67.7597 6.2223 68.3719 6.04147 68.8926 5.70267C69.4134 5.36387 69.8193 4.88232 70.059 4.31891C70.2986 3.7555 70.3614 3.13555 70.2392 2.53744C70.117 1.93933 69.8154 1.38994 69.3725 0.958723C68.9296 0.527511 68.3654 0.233851 67.7511 0.11488C67.1368 -0.00409078 66.5001 0.0569695 65.9215 0.29034C65.3429 0.52371 64.8483 0.918911 64.5004 1.42596C64.1524 1.93301 63.9667 2.52914 63.9667 3.13897C63.9667 3.95672 64.3003 4.74098 64.8942 5.31921C65.488 5.89745 66.2935 6.2223 67.1333 6.2223ZM223.44 109.428C222.814 109.428 222.201 109.608 221.681 109.947C221.16 110.286 220.754 110.768 220.514 111.331C220.275 111.894 220.212 112.514 220.334 113.113C220.456 113.711 220.758 114.26 221.201 114.691C221.644 115.122 222.208 115.416 222.822 115.535C223.436 115.654 224.073 115.593 224.652 115.36C225.23 115.126 225.725 114.731 226.073 114.224C226.421 113.717 226.607 113.121 226.607 112.511C226.607 111.693 226.273 110.909 225.679 110.331C225.085 109.752 224.28 109.428 223.44 109.428ZM223.44 129.42C222.814 129.42 222.201 129.601 221.681 129.94C221.16 130.278 220.754 130.76 220.514 131.323C220.275 131.887 220.212 132.507 220.334 133.105C220.456 133.703 220.758 134.252 221.201 134.684C221.644 135.115 222.208 135.408 222.822 135.527C223.436 135.646 224.073 135.585 224.652 135.352C225.23 135.119 225.725 134.723 226.073 134.216C226.421 133.709 226.607 133.113 226.607 132.503C226.607 131.686 226.273 130.901 225.679 130.323C225.085 129.745 224.28 129.42 223.44 129.42ZM220.273 149.412C219.647 149.412 219.035 149.593 218.514 149.932C217.993 150.271 217.587 150.752 217.348 151.316C217.108 151.879 217.045 152.499 217.168 153.097C217.29 153.695 217.591 154.245 218.034 154.676C218.477 155.107 219.041 155.401 219.656 155.52C220.27 155.639 220.907 155.578 221.485 155.344C222.064 155.111 222.558 154.716 222.906 154.209C223.254 153.702 223.44 153.105 223.44 152.496C223.442 152.09 223.361 151.687 223.203 151.312C223.044 150.936 222.811 150.595 222.517 150.307C222.223 150.02 221.873 149.792 221.488 149.636C221.103 149.48 220.69 149.4 220.273 149.4V149.412ZM187.416 72.5941L147.94 93.382C145.195 94.8102 142.051 95.3415 138.972 94.8973C135.893 94.4532 133.042 93.0572 130.84 90.9153L87.4887 48.5256C86.8957 47.9459 86.0905 47.6192 85.2502 47.6174C84.4099 47.6157 83.6033 47.9391 83.0078 48.5164C82.4124 49.0937 82.0769 49.8777 82.0751 50.6959C82.0733 51.5141 82.4054 52.2995 82.9983 52.8793L126.35 95.269C129.517 98.3502 133.617 100.36 138.046 101.001C142.474 101.643 146.997 100.883 150.949 98.8333L190.431 78.0455C190.797 77.8527 191.12 77.5917 191.382 77.2773C191.645 76.9629 191.841 76.6012 191.96 76.213C192.078 75.8247 192.118 75.4175 192.075 75.0145C192.032 74.6116 191.908 74.2208 191.71 73.8645C191.512 73.5082 191.244 73.1933 190.921 72.9378C190.598 72.6824 190.227 72.4914 189.828 72.3757C189.429 72.2601 189.011 72.222 188.597 72.2637C188.183 72.3054 187.782 72.4261 187.416 72.6188V72.5941ZM263.467 71.2498L249.109 77.3425L257.437 81.7825C258.042 82.1049 258.523 82.6108 258.806 83.2233C259.088 83.8359 259.158 84.5216 259.004 85.1762C258.85 85.8308 258.48 86.4185 257.952 86.85C257.423 87.2815 256.765 87.5332 256.076 87.5668C255.518 87.5668 246.766 88.0046 238.817 88.0046C235.264 88.0673 231.71 87.9107 228.177 87.536C227.766 87.476 227.371 87.3378 227.014 87.1292C226.658 86.9206 226.347 86.6457 226.1 86.3201C225.853 85.9946 225.674 85.6248 225.573 85.2319C225.473 84.839 225.453 84.4307 225.514 84.0302C225.576 83.6298 225.718 83.245 225.932 82.898C226.146 82.551 226.429 82.2484 226.763 82.0076C227.097 81.7668 227.477 81.5925 227.88 81.4946C228.284 81.3967 228.703 81.3772 229.115 81.4371C234.145 81.8741 239.199 81.9895 244.245 81.7825L235.543 77.1451C234.826 76.7428 234.298 76.0829 234.075 75.3068C233.851 74.5306 233.948 73.7 234.345 72.9928C234.743 72.2857 235.409 71.7582 236.201 71.5235C236.993 71.2887 237.848 71.3654 238.583 71.737L242.079 73.587L250.819 69.887C242.719 67.881 234.73 65.4687 226.885 62.6596C221.359 69.9053 215.455 76.8704 209.196 83.5276C209.241 84.9028 209.253 86.2595 209.279 87.6223L231.718 90.274C232.558 90.3222 233.343 90.6933 233.902 91.3057C234.461 91.9181 234.747 92.7215 234.697 93.5392C234.648 94.357 234.267 95.1221 233.638 95.6662C233.009 96.2103 232.184 96.4889 231.344 96.4406H230.958L209.323 93.8815C209.182 113.862 207.459 133.803 204.168 153.525C203.764 155.816 202.449 157.859 200.508 159.211C198.567 160.563 196.156 161.115 193.8 160.747C148.407 153.904 103.781 142.891 60.5213 127.854C58.3094 127.039 56.5131 125.413 55.5175 123.324C54.5219 121.236 54.4061 118.85 55.195 116.68C59.0975 101.704 60.9481 86.2912 60.6987 70.8428L33.1613 64.5466C32.7563 64.4539 32.374 64.2844 32.0362 64.0478C31.6984 63.8112 31.4118 63.5122 31.1928 63.1678C30.9737 62.8233 30.8265 62.4402 30.7594 62.0404C30.6924 61.6406 30.7069 61.2318 30.8022 60.8374C30.8974 60.443 31.0715 60.0708 31.3145 59.7419C31.5574 59.413 31.8646 59.1339 32.2183 58.9206C32.5721 58.7073 32.9655 58.564 33.3761 58.4987C33.7868 58.4334 34.2066 58.4476 34.6117 58.5403L60.781 64.5281C60.781 63.8313 60.781 63.1468 60.781 62.4623C53.7234 52.2295 47.5342 41.4535 42.275 30.2415C37.8417 29.594 26.0997 27.855 16.378 26.2825L30.2353 36.4575C30.7318 36.8231 31.1065 37.3232 31.3128 37.8951C31.519 38.467 31.5475 39.0854 31.3948 39.6729C31.242 40.2605 30.9148 40.7913 30.454 41.1988C29.9933 41.6063 29.4193 41.8726 28.804 41.9643L22.9837 42.8338L37.848 50.277C38.2301 50.4549 38.5717 50.7056 38.8525 51.0143C39.1333 51.323 39.3477 51.6834 39.4829 52.0742C39.6181 52.465 39.6715 52.8783 39.6398 53.2895C39.6081 53.7007 39.4919 54.1016 39.2983 54.4683C39.1047 54.8351 38.8375 55.1603 38.5124 55.4247C38.1874 55.6892 37.8113 55.8874 37.4062 56.0078C37.0011 56.1281 36.5753 56.1681 36.154 56.1254C35.7328 56.0827 35.3246 55.9582 34.9537 55.7591L11.4 43.95C10.8047 43.6521 10.3216 43.1783 10.0201 42.5965C9.71853 42.0147 9.61409 41.3548 9.72173 40.7116C9.82936 40.0684 10.1435 39.4749 10.6192 39.0164C11.0948 38.5579 11.7074 38.2579 12.369 38.1595L20.425 36.9631L1.90001 23.3533C1.31734 22.9261 0.903993 22.3162 0.729809 21.6265C0.555626 20.9369 0.631286 20.2098 0.944005 19.5682C1.25672 18.9266 1.78733 18.4098 2.44616 18.1051C3.105 17.8004 3.85167 17.7264 4.56001 17.8958C11.2227 19.4806 44.6373 24.3461 44.9793 24.3955C45.5154 24.4743 46.0217 24.6858 46.4497 25.0097C46.8778 25.3336 47.2132 25.7591 47.424 26.2455C51.2554 34.7425 55.6999 42.9647 60.724 50.8505C60.553 41.5388 60.192 33.6825 59.945 29.1315C59.8735 27.8449 60.0934 26.5587 60.5892 25.3641C61.085 24.1695 61.8445 23.0956 62.814 22.2186C63.7741 21.3438 64.9209 20.6862 66.1722 20.2928C67.4236 19.8995 68.7487 19.7801 70.053 19.9431C113.876 26.1326 157.258 34.9888 199.943 46.4598C201.616 46.9091 203.121 47.8179 204.278 49.0776C205.435 50.3374 206.195 51.8948 206.467 53.5638C207.581 60.5691 208.31 67.667 208.759 74.7031C213.862 69.2165 218.587 63.4071 222.902 57.3131C223.284 56.7039 223.873 56.2429 224.566 56.009C225.259 55.7751 226.014 55.7827 226.702 56.0305C238.071 60.4761 249.94 63.6015 262.061 65.3421C262.807 65.2747 263.552 65.4854 264.146 65.9317C264.74 66.378 265.137 67.0267 265.259 67.7471C265.423 68.4427 265.333 69.1721 265.007 69.8108C264.68 70.4495 264.136 70.9581 263.467 71.2498ZM200.209 54.5135C200.129 54.0134 199.901 53.5467 199.554 53.1702C199.207 52.7936 198.754 52.5233 198.252 52.3921C155.852 41.0073 112.763 32.215 69.236 26.0666C69.1222 26.0577 69.0078 26.0577 68.894 26.0666C68.5308 26.071 68.1724 26.1471 67.8403 26.2903C67.5082 26.4334 67.2093 26.6407 66.9619 26.8995C66.7144 27.1583 66.5234 27.4634 66.4005 27.7961C66.2776 28.1289 66.2252 28.4825 66.2467 28.8355C67.3043 48.4331 68.932 96.4098 61.18 118.684C61.0488 119.006 60.9842 119.349 60.99 119.696C60.9958 120.042 61.0718 120.384 61.2136 120.701C61.3555 121.018 61.5604 121.306 61.8165 121.546C62.0727 121.786 62.3751 121.974 62.7063 122.1C105.573 137 149.794 147.91 194.775 154.685C195.49 154.801 196.224 154.639 196.816 154.233C197.409 153.826 197.814 153.209 197.942 152.514C203.628 120.132 204.394 87.1124 200.216 54.5135H200.209ZM110.428 182.7C94.4708 193.011 76.5995 200.19 57.817 203.833C57.0252 203.943 56.3055 204.34 55.8022 204.946C55.299 205.551 55.0496 206.319 55.1041 207.096C55.1587 207.873 55.5131 208.601 56.0962 209.134C56.6793 209.667 57.4479 209.965 58.2477 209.969C58.3939 209.967 58.5398 209.957 58.6847 209.938C78.4562 206.212 97.2631 198.674 114 187.769C114.356 187.546 114.663 187.256 114.902 186.917C115.141 186.577 115.308 186.193 115.392 185.79C115.476 185.386 115.477 184.97 115.393 184.566C115.31 184.162 115.144 183.778 114.906 183.438C114.667 183.097 114.361 182.807 114.006 182.583C113.65 182.36 113.252 182.208 112.835 182.137C112.419 182.066 111.991 182.077 111.579 182.17C111.167 182.262 110.777 182.434 110.434 182.675L110.428 182.7ZM77.0387 167.006C77.4889 166.338 77.6551 165.525 77.5022 164.74C77.3493 163.955 76.8894 163.258 76.2192 162.797C75.5491 162.336 74.7212 162.146 73.9099 162.267C73.0987 162.388 72.3676 162.812 71.8707 163.448C61.2377 176.636 47.7849 187.414 32.4457 195.033C32.0628 195.21 31.7204 195.46 31.4385 195.768C31.1567 196.076 30.9412 196.436 30.8048 196.827C30.6685 197.218 30.6141 197.631 30.6448 198.042C30.6754 198.454 30.7906 198.855 30.9835 199.223C31.1764 199.59 31.4431 199.916 31.7677 200.181C32.0923 200.446 32.4683 200.645 32.8733 200.766C33.2784 200.888 33.7043 200.928 34.1258 200.886C34.5473 200.844 34.9559 200.72 35.3273 200.522C51.6225 192.505 65.8732 181.046 77.0387 166.981V167.006ZM51.9333 143.776C52.1912 142.997 52.1208 142.151 51.7378 141.423C51.3547 140.695 50.6904 140.145 49.8908 139.894C49.0913 139.643 48.2221 139.712 47.4744 140.084C46.7267 140.457 46.1618 141.104 45.904 141.883C45.904 141.981 42.3003 151.959 24.8583 167.086C24.231 167.63 23.8512 168.394 23.8025 169.21C23.7538 170.027 24.0402 170.829 24.5987 171.44C25.1572 172.05 25.942 172.42 26.7806 172.468C27.6191 172.515 28.4426 172.236 29.07 171.692C48.0383 155.258 51.8003 144.232 51.9333 143.776Z" fill="#52D066"/>
</svg>
