<svg width="42" height="42" viewBox="0 0 42 42" fill="none" xmlns="http://www.w3.org/2000/svg">
<path d="M36.4792 23.0417C36.5625 22.375 36.625 21.7083 36.625 21C36.625 20.2917 36.5625 19.625 36.4792 18.9583L40.875 15.5208C41.2709 15.2083 41.375 14.6458 41.125 14.1875L36.9584 6.97916C36.7084 6.52083 36.1459 6.35417 35.6875 6.52083L30.5 8.60417C29.4167 7.77083 28.25 7.08333 26.9792 6.5625L26.1875 1.04166C26.125 0.541664 25.6875 0.166664 25.1667 0.166664H16.8334C16.3125 0.166664 15.875 0.541664 15.8125 1.04166L15.0209 6.5625C13.75 7.08333 12.5834 7.79167 11.5 8.60417L6.31253 6.52083C5.83336 6.33333 5.2917 6.52083 5.0417 6.97916L0.875032 14.1875C0.604198 14.6458 0.729199 15.2083 1.12503 15.5208L5.52087 18.9583C5.43753 19.625 5.37503 20.3125 5.37503 21C5.37503 21.6875 5.43753 22.375 5.52087 23.0417L1.12503 26.4792C0.729199 26.7917 0.625032 27.3542 0.875032 27.8125L5.0417 35.0208C5.2917 35.4792 5.8542 35.6458 6.31253 35.4792L11.5 33.3958C12.5834 34.2292 13.75 34.9167 15.0209 35.4375L15.8125 40.9583C15.875 41.4583 16.3125 41.8333 16.8334 41.8333H25.1667C25.6875 41.8333 26.125 41.4583 26.1875 40.9583L26.9792 35.4375C28.25 34.9167 29.4167 34.2083 30.5 33.3958L35.6875 35.4792C36.1667 35.6667 36.7084 35.4792 36.9584 35.0208L41.125 27.8125C41.375 27.3542 41.2709 26.7917 40.875 26.4792L36.4792 23.0417ZM21 28.2917C16.9792 28.2917 13.7084 25.0208 13.7084 21C13.7084 16.9792 16.9792 13.7083 21 13.7083C25.0209 13.7083 28.2917 16.9792 28.2917 21C28.2917 25.0208 25.0209 28.2917 21 28.2917Z" fill="white"/>
</svg>
