<svg width="41" height="29" viewBox="0 0 41 29" fill="none" xmlns="http://www.w3.org/2000/svg">
<path d="M39.7492 5.35625C39.4051 5.14288 39.012 5.02125 38.6074 5.00295C38.2029 4.98466 37.8004 5.07031 37.4384 5.25175L31.375 8.28225V5C31.375 2.38037 29.2446 0.25 26.625 0.25H5.25C2.63037 0.25 0.5 2.38037 0.5 5V24C0.5 26.6196 2.63037 28.75 5.25 28.75H26.625C29.2446 28.75 31.375 26.6196 31.375 24V20.7201L37.4384 23.7483C37.7998 23.9314 38.2024 24.0182 38.6072 24.0003C39.012 23.9824 39.4054 23.8604 39.7492 23.6461C40.4475 23.2115 40.875 22.4491 40.875 21.625V7.375C40.8748 6.97049 40.7713 6.57273 40.5743 6.21944C40.3773 5.86614 40.0933 5.56902 39.7492 5.35625Z" fill="#403F3F"/>
</svg>
